<svg xmlns="http://www.w3.org/2000/svg" viewBox="0 0 48 48"><title>11-CSS code</title><g id="_11-CSS_code" data-name="11-CSS code"><path d="M45,40H3a3,3,0,0,1-3-3V11A3,3,0,0,1,3,8H6v2H3a1,1,0,0,0-1,1V37a1,1,0,0,0,1,1H45a1,1,0,0,0,1-1V11a1,1,0,0,0-1-1H42V8h3a3,3,0,0,1,3,3V37A3,3,0,0,1,45,40Z"/><rect x="15" y="39" width="2" height="4"/><path d="M13,47H11V45a3,3,0,0,1,3-3H24v2H14a1,1,0,0,0-1,1Z"/><rect x="31" y="39" width="2" height="4"/><path d="M37,47H35V45a1,1,0,0,0-1-1H29V42h5a3,3,0,0,1,3,3Z"/><rect x="9" y="46" width="30" height="2"/><path d="M36,36a1,1,0,0,1-.707-.293L29.586,30H8a3,3,0,0,1-3-3V3A3,3,0,0,1,8,0H40a3,3,0,0,1,3,3V27a3,3,0,0,1-3,3H37v5a1,1,0,0,1-1,1ZM8,2A1,1,0,0,0,7,3V27a1,1,0,0,0,1,1H30a1,1,0,0,1,.707.293L35,32.586V29a1,1,0,0,1,1-1h4a1,1,0,0,0,1-1V3a1,1,0,0,0-1-1Z"/><rect x="4" y="34" width="2" height="2"/><rect x="8" y="34" width="2" height="2"/><rect x="12" y="34" width="2" height="2"/><path d="M18,19H12a1,1,0,0,1-1-1V12a1,1,0,0,1,1-1h6v2H13v4h5Z"/><path d="M26,19H20V17h5V16H21a1,1,0,0,1-1-1V12a1,1,0,0,1,1-1h6v2H22v1h4a1,1,0,0,1,1,1v3A1,1,0,0,1,26,19Z"/><path d="M35,19H29V17h5V16H30a1,1,0,0,1-1-1V12a1,1,0,0,1,1-1h6v2H31v1h4a1,1,0,0,1,1,1v3A1,1,0,0,1,35,19Z"/><rect x="9" y="4" width="2" height="2"/><rect x="13" y="4" width="22" height="2"/><rect x="37" y="4" width="2" height="2"/><rect x="9" y="24" width="2" height="2"/><rect x="13" y="24" width="22" height="2"/><rect x="37" y="24" width="2" height="2"/></g></svg>