<svg xmlns="http://www.w3.org/2000/svg" viewBox="0 0 48 48"><title>24-Html</title><g id="_24-Html" data-name="24-Html"><path d="M43,42H5a5.006,5.006,0,0,1-5-5V13A5.006,5.006,0,0,1,5,8v2a3,3,0,0,0-3,3V37a3,3,0,0,0,3,3H43a3,3,0,0,0,3-3V13a3,3,0,0,0-3-3V8a5.006,5.006,0,0,1,5,5V37A5.006,5.006,0,0,1,43,42Z"/><rect x="14" y="46" width="20" height="2"/><rect x="17" y="41" width="2" height="6"/><rect x="29" y="41" width="2" height="6"/><path d="M38,34H10a3,3,0,0,1-3-3V12H9V31a1,1,0,0,0,1,1H38a1,1,0,0,0,1-1V3a1,1,0,0,0-1-1H10A1,1,0,0,0,9,3V8H37v2H8A1,1,0,0,1,7,9V3a3,3,0,0,1,3-3H38a3,3,0,0,1,3,3V31A3,3,0,0,1,38,34Z"/><path d="M9,38H7a3,3,0,0,1-3-3V33H6v2a1,1,0,0,0,1,1H9Z"/><rect x="11" y="36" width="2" height="2"/><rect x="11" y="4" width="2" height="2"/><rect x="15" y="4" width="2" height="2"/><rect x="19" y="4" width="2" height="2"/><path d="M18.293,23.707l-5-5a1,1,0,0,1,0-1.414l5-5,1.414,1.414L15.414,18l4.293,4.293Z"/><path d="M29.707,23.707l-1.414-1.414L32.586,18l-4.293-4.293,1.414-1.414,5,5a1,1,0,0,1,0,1.414Z"/><rect x="18.615" y="17" width="10.77" height="2" transform="translate(-1.62 33.608) rotate(-68.219)"/><rect x="12" y="28" width="24" height="2"/></g></svg>